<?xml version="1.0" encoding="UTF-8" standalone="no"?>
<svg
   xmlns:dc="http://purl.org/dc/elements/1.1/"
   xmlns:cc="http://creativecommons.org/ns#"
   xmlns:rdf="http://www.w3.org/1999/02/22-rdf-syntax-ns#"
   xmlns:svg="http://www.w3.org/2000/svg"
   xmlns="http://www.w3.org/2000/svg"
   xmlns:sodipodi="http://sodipodi.sourceforge.net/DTD/sodipodi-0.dtd"
   xmlns:inkscape="http://www.inkscape.org/namespaces/inkscape"
   id="svg8"
   version="1.1"
   viewBox="0 0 100 100"
   height="100mm"
   width="100mm"
   sodipodi:docname="blanco.svg"
   inkscape:export-filename="/home/david/aplicaciones/music/recursos/vista/img/blanco.png"
   inkscape:export-xdpi="63.5"
   inkscape:export-ydpi="63.5"
   inkscape:version="0.92.4 (5da689c313, 2019-01-14)">
  <sodipodi:namedview
     pagecolor="#ffffff"
     bordercolor="#666666"
     borderopacity="1"
     objecttolerance="10"
     gridtolerance="10"
     guidetolerance="10"
     inkscape:pageopacity="0"
     inkscape:pageshadow="2"
     inkscape:window-width="858"
     inkscape:window-height="480"
     id="namedview11"
     showgrid="false"
     inkscape:zoom="0.69271224"
     inkscape:cx="2.0300637"
     inkscape:cy="188.97638"
     inkscape:window-x="0"
     inkscape:window-y="27"
     inkscape:window-maximized="0"
     inkscape:current-layer="svg8" />
  <defs
     id="defs2" />
  <metadata
     id="metadata5">
    <rdf:RDF>
      <cc:Work
         rdf:about="">
        <dc:format>image/svg+xml</dc:format>
        <dc:type
           rdf:resource="http://purl.org/dc/dcmitype/StillImage" />
        <dc:title />
      </cc:Work>
    </rdf:RDF>
  </metadata>
  <g
     transform="translate(197.30357,-62.122017)"
     id="layer1">
    <rect
       ry="24.297619"
       style="opacity:1;fill:none;fill-opacity:1;stroke:none;stroke-width:2;stroke-linecap:round;stroke-linejoin:round;stroke-miterlimit:4;stroke-dasharray:none;stroke-opacity:1"
       id="rect1124"
       width="100"
       height="100"
       x="-197.30357"
       y="62.122017" />
    <g
       transform="translate(0.69632414)"
       id="g1239">
      <g
         id="g1122"
         transform="translate(5.8245302,0.00125967)">
        <g
           style="stroke-width:0.54397279"
           transform="matrix(1.8383273,0,0,1.8383273,75.891699,-94.52211)"
           id="g966">
          <path
             id="path890"
             transform="matrix(0.14392613,0,0,0.14392613,-152.15796,85.209455)"
             d="M 212.26953 24.511719 C 217.4442 36.43215 222.31499 49.204728 226.79297 62.71875 C 239.04829 99.70402 247.87614 142.18357 247.87305 189.02148 C 247.87305 190.79907 247.86443 192.57228 247.83594 194.3418 C 247.27659 239.10911 238.66882 279.70732 226.88867 315.22656 C 222.41227 328.72367 217.55861 341.53761 212.38477 353.43945 C 216.56157 352.90873 220.73923 352.37404 224.81445 351.53711 C 230.20814 350.42939 235.50815 349.06083 240.69922 347.44141 C 245.89029 345.82199 250.96933 343.95262 255.92969 341.84961 C 260.42605 339.9433 264.78945 337.78363 269.07422 335.50195 C 277.00006 317.45397 283.80681 297.75512 289.07031 276.55273 C 295.3312 251.3327 299.53055 224.26024 300.03516 195.12891 C 300.06291 193.08362 300.08511 191.03569 300.07812 188.98242 C 300.03088 157.563 295.72324 128.37401 288.99805 101.34961 C 283.73196 80.18844 276.94322 60.487635 269.02734 42.447266 C 264.7573 40.174873 260.40973 38.024672 255.92969 36.125 C 250.96933 34.021659 245.89029 32.15288 240.69922 30.533203 C 235.50815 28.913526 230.20814 27.541498 224.81445 26.433594 C 220.70155 25.58879 216.48585 25.04454 212.26953 24.511719 z M 161.41992 25.916016 C 160.30672 26.12086 159.15423 26.206542 158.04883 26.433594 C 152.65494 27.541498 147.35539 28.913526 142.16406 30.533203 C 138.03963 31.820014 134.04121 33.380688 130.06055 34.974609 C 135.01357 44.676161 139.93204 55.018979 144.54102 66.521484 C 158.21764 100.65382 169.09682 142.17583 169.09375 189.01367 C 169.09375 190.44393 169.07043 191.87121 169.05664 193.29492 C 168.4924 238.4506 157.84539 278.42146 144.57812 311.46484 C 139.95276 322.98474 135.0248 333.29122 130.05859 343 C 134.04026 344.59416 138.03856 346.15447 142.16406 347.44141 C 147.35539 349.06083 152.65494 350.42939 158.04883 351.53711 C 159.18598 351.77063 160.37217 351.85833 161.51758 352.06836 C 168.05827 342.38506 174.3678 331.45927 180.25977 319.61719 C 197.23392 285.50131 210.20888 242.98462 211.05859 193.92969 C 211.07937 192.28398 211.0957 190.63438 211.0957 188.98242 C 211.01886 137.93831 197.72033 93.683937 180.15625 58.359375 C 174.26391 46.508856 167.9649 35.609534 161.41992 25.916016 z M 102.59375 49.107422 C 101.32837 49.914411 99.986023 50.609213 98.744141 51.449219 C 94.32914 54.435563 90.0668 57.627988 85.966797 61.013672 C 83.152391 63.337722 80.527867 65.872003 77.873047 68.373047 C 82.702884 79.468602 87.280019 91.299034 91.208984 104.26367 C 98.853815 129.48973 104.12511 157.96143 104.12305 189.00977 C 104.12305 190.31211 104.11887 191.61371 104.0957 192.91016 C 103.72618 222.48314 98.627457 249.67785 91.302734 273.81836 C 87.376913 286.75691 82.783192 298.61064 77.957031 309.67969 C 80.586189 312.15295 83.181363 314.6611 85.966797 316.96094 C 90.0668 320.3462 94.32914 323.53945 98.744141 326.52539 C 99.994001 327.37069 101.34547 328.069 102.61914 328.88086 C 108.35342 319.61063 113.81108 309.43607 118.80078 298.31836 C 131.96629 268.98382 141.64199 233.66608 142.33789 193.48828 C 142.36565 191.98981 142.37305 190.4866 142.37305 188.98242 C 142.30999 147.06036 132.45376 110.11838 118.80078 79.654297 C 113.81454 68.528464 108.32773 58.391103 102.59375 49.107422 z "
             style="fill:#f5fbff;fill-opacity:1;stroke:none;stroke-width:0.99999988px;stroke-linecap:butt;stroke-linejoin:miter;stroke-opacity:1" />
        </g>
      </g>
    </g>
  </g>
</svg>
